HIERARCHY
ROOT pelvis
{
  OFFSET 0 100 0
  CHANNELS 6 Xposition Yposition Zposition Zrotation Xrotation Yrotation
  JOINT pelvis_right_femur
  {
    OFFSET -10.78128 -3.44521 -0.5502486
    CHANNELS 3 Zrotation Xrotation Yrotation
    JOINT right_femur_tibia
    {
      OFFSET -0.8047443 -44.0398 -0.1307829
      CHANNELS 3 Zrotation Xrotation Yrotation
      JOINT right_tibia_foot
      {
        OFFSET 3.006224 -47.83518 -5
        CHANNELS 3 Zrotation Xrotation Yrotation
        End Site
        {
          OFFSET 0 -5 15
        }
      }
    }
  }
  JOINT pelvis_left_femur
  {
    OFFSET 10.78128 -3.44521 -0.5502486
    CHANNELS 3 Zrotation Xrotation Yrotation
    JOINT left_femur_tibia
    {
      OFFSET 0.8047443 -44.0398 -0.1307829
      CHANNELS 3 Zrotation Xrotation Yrotation
      JOINT left_tibia_foot
      {
        OFFSET -4.370144 -48.10324 -4.275266
        CHANNELS 3 Zrotation Xrotation Yrotation
        End Site
        {
          OFFSET 0 -5 15
        }
      }
    }
  }
  JOINT pelvis_spine1
  {
    OFFSET 0 6.468898 -3.129235
    CHANNELS 3 Zrotation Xrotation Yrotation
    JOINT spine1
    {
      OFFSET 0 23.15396 4.99043
      CHANNELS 3 Zrotation Xrotation Yrotation
      JOINT spine2
      {
        OFFSET 0 20.79997 -5.064912
        CHANNELS 3 Zrotation Xrotation Yrotation
        JOINT neck
        {
          OFFSET 0 14.38658 9.616178
          CHANNELS 3 Zrotation Xrotation Yrotation
          End Site
          {
            OFFSET 0 20 0
          }
        }
      }
      JOINT right_manubrium
      {
        OFFSET -5.722621 16.35077 3.967754
        CHANNELS 3 Zrotation Xrotation Yrotation
        JOINT right_clavicle
        {
          OFFSET -13.16364 1.694482 -4.693211
          CHANNELS 3 Zrotation Xrotation Yrotation
          JOINT right_humerus
          {
            OFFSET -28.5034 -0.3100689 -2.792744
            CHANNELS 3 Zrotation Xrotation Yrotation
            JOINT right_radius
            {
              OFFSET -25.15693 0.02248979 -1.271978
              CHANNELS 3 Zrotation Xrotation Yrotation
              End Site
              {
                OFFSET -15 0 0
              }
            }
          }
        }
      }
      JOINT left_manubrium
      {
        OFFSET 5.722621 16.35077 3.967754
        CHANNELS 3 Zrotation Xrotation Yrotation
        JOINT left_clavicle
        {
          OFFSET 13.16364 1.694482 -4.693211
          CHANNELS 3 Zrotation Xrotation Yrotation
          JOINT left_humerus
          {
            OFFSET 29.39168 -1.063119 -2.237045
            CHANNELS 3 Zrotation Xrotation Yrotation
            JOINT left_radius
            {
              OFFSET 24.59957 -0.9528479 0.9047498
              CHANNELS 3 Zrotation Xrotation Yrotation
              End Site
              {
                OFFSET 15 -0 -0
              }
            }
          }
        }
      }
    }
  }
}
MOTION
Frames: 9
Frame Time: 0.0416666666667
0 103.5113 0 1.910298 -1.811107 0.1344407 1.279157 -12.39494 7.074186 -0 38.27879 -0 -5.782987 -17.74156 -3.246602 -7.589607 12.27056 -23.97635 -0 5.222617 -0 6.026495 -17.37903 25.86438 -2.723505 -4.245211 4.860312 3.466578 9.724447 -8.600651 1.560323 21.29068 6.007361 2.144705 -26.65516 9.898871 6.00195 -19.66236 11.3014 86.64733 33.48403 -21.73731 -0 0 16.14313 -5.250157 7.863562 2.651626 6.662076 -20.9255 -0.02806374 -95.39676 25.88659 23.4507 0 0 -14.54317 9.993691 17.86903 2.520106
0.2192789 103.5958 1.424889 1.511346 -0.9594857 0.1357514 2.128264 -14.42456 7.77286 -0 37.45264 -0 -5.453405 -17.52993 -3.388681 -7.507366 11.97722 -23.8261 -0 5.223098 -0 6.271915 -18.1629 26.18863 -2.66377 -4.144241 4.880311 3.40596 9.736284 -8.532764 1.540663 21.29153 6.021866 2.186218 -26.57028 9.834109 5.999021 -19.60117 11.3071 86.60216 33.56544 -21.59435 -0 0 16.04652 -5.422691 7.926406 2.808205 6.620501 -20.90404 -0.08213743 -95.3207 25.8565 23.41719 0 0 -14.57923 9.893485 17.72855 2.630688
0.5390424 103.2369 3.673461 0.4819633 0.4455087 0.1897254 3.354348 -22.04884 6.111012 -0 29.96441 -0 -5.579531 -12.05466 -2.673387 -7.031779 11.5888 -20.44857 -0 5.289748 -0 6.562719 -20.14581 23.9469 -1.893504 -2.809241 5.039591 2.896925 9.834323 -8.004282 1.425076 21.0019 6.286859 2.769548 -26.09067 9.306379 5.940826 -18.88542 11.36214 86.51282 34.79134 -20.59605 -0 0 14.79507 -6.606185 8.562676 4.098381 6.279278 -20.85717 -0.6328801 -94.08659 25.64912 22.54982 0 0 -16.32181 9.368518 15.73113 3.641491
0.8505038 102.7482 6.220696 -0.05251985 1.653948 0.3004027 4.484174 -26.03104 6.298707 -0 26.64744 -0 -5.465744 -10.11099 -2.394965 -6.840701 11.64329 -19.54684 -0 5.782255 -0 6.772525 -21.20321 23.50357 -1.753907 -2.674613 5.021012 3.061566 9.754006 -8.218045 1.451297 20.80026 6.349894 2.798481 -26.56583 9.447763 5.87641 -18.88411 11.36149 86.98835 35.01401 -21.32124 -0 0 14.63193 -5.687789 8.271801 3.658662 6.274571 -20.98299 -0.654538 -94.01736 26.31412 22.5339 0 0 -17.66276 9.315705 15.46062 4.084368
1.144935 102.123 9.279046 -0.6107837 2.948183 0.5179238 5.705906 -30.75512 6.0241 -0 21.92051 -0 -5.689162 -7.052585 -1.7278 -6.585277 12.13925 -18.32939 -0 6.894932 -0 6.590624 -22.32665 22.47097 -1.536212 -2.495174 4.985418 3.289665 9.609108 -8.524868 1.473177 20.49387 6.497218 2.870728 -27.25157 9.678587 5.754292 -18.89893 11.35699 87.70714 35.3331 -22.40115 -0 0 14.40447 -4.398418 7.829885 3.062662 6.293668 -21.18004 -0.704748 -93.92334 27.31054 22.54642 0 0 -19.71936 9.177722 15.02626 4.823625
1.404093 101.3414 12.94686 -0.9685693 3.709274 0.8784681 6.342511 -34.27967 5.146974 -0 17.31164 -0 -6.092217 -3.991522 -1.09727 -6.281333 13.11336 -17.00308 -0 8.502095 -0 5.205392 -23.2592 20.61256 -1.319308 -2.279564 4.947438 3.388314 9.518824 -8.689395 1.449668 20.23511 6.693535 3.00902 -27.61779 9.798987 5.653562 -18.84012 11.37215 88.20542 35.64838 -23.06242 -0 0 14.10033 -3.835333 7.681596 2.879915 6.320842 -21.34977 -0.8142038 -93.64081 27.81432 22.37659 0 0 -21.34734 9.045663 14.45056 5.387739
1.603601 100.4652 17.39406 -1.182763 4.120235 1.440211 6.548699 -36.72867 3.864872 -0 12.75631 -0 -6.495564 -1.107406 -0.6379465 -5.910912 14.68355 -15.54804 -0 11.07039 -0 2.513698 -23.83996 17.82507 -1.063034 -1.995634 4.896702 3.402355 9.483099 -8.784925 1.370619 19.96482 6.955043 3.215597 -27.7502 9.813128 5.5621 -18.68848 11.42184 88.64104 35.99141 -23.55445 -0 0 13.62837 -3.855253 7.814995 3.029719 6.350763 -21.55191 -1.014272 -93.09485 27.96914 21.96529 0 0 -22.94438 8.829061 13.61262 5.957329
1.727179 99.61991 22.71204 -1.261244 4.012255 2.209029 6.371654 -37.06116 2.591939 -0 9.570983 -0 -6.653038 0.7383228 -0.7080092 -5.455862 16.61998 -14.12747 -0 14.86966 -0 -1.21877 -23.39432 14.43151 -0.8091174 -1.655588 4.839484 3.297038 9.565459 -8.776235 1.231537 19.74263 7.214857 3.457413 -27.48183 9.626669 5.515056 -18.40943 11.51825 88.90832 36.25537 -23.72748 -0 0 12.97739 -4.757924 8.361971 3.627907 6.355342 -21.76479 -1.319237 -92.25409 27.56941 21.23429 0 0 -24.13232 8.498245 12.56132 6.432609
1.786881 99.06395 28.84259 -1.433432 3.389955 3.061549 6.38319 -34.5618 2.300111 -0 9.404572 -0 -6.430767 0.7258142 -1.595552 -4.78274 18.05926 -12.9101 -0 20.44747 -0 -5.025346 -20.98743 11.27059 -0.5847453 -1.308549 4.808487 3.078388 9.76329 -8.684266 1.066284 19.62129 7.385439 3.682304 -26.82579 9.231002 5.516603 -18.05364 11.63446 89.012 36.31785 -23.64393 -0 0 12.29815 -6.361401 9.196396 4.519342 6.310599 -21.96383 -1.703355 -91.36064 26.88527 20.4019 0 0 -24.7459 7.901728 11.51771 7.013406
